<?xml version="1.0" standalone="no"?>
<!DOCTYPE svg PUBLIC "-//W3C//DTD SVG 20010904//EN"
 "http://www.w3.org/TR/2001/REC-SVG-20010904/DTD/svg10.dtd">
<svg version="1.0" xmlns="http://www.w3.org/2000/svg"
 width="609.000000pt" height="180.000000pt" viewBox="0 0 609.000000 180.000000"
 preserveAspectRatio="xMidYMid meet">

<g transform="translate(0.000000,180.000000) scale(0.100000,-0.100000)"
fill="#000000" stroke="none">
<path d="M2610 1421 c-108 -38 -168 -139 -157 -261 13 -143 122 -229 276 -218
153 11 238 110 229 266 -3 55 -10 79 -33 117 -61 97 -196 138 -315 96z m177
-101 c44 -27 67 -74 66 -138 -1 -89 -59 -147 -147 -146 -92 0 -146 56 -146
152 0 98 52 152 145 152 32 0 62 -7 82 -20z"/>
<path d="M1969 1383 c10 -27 54 -135 96 -240 l77 -193 42 0 41 0 95 231 c52
127 97 235 98 240 2 5 -21 9 -51 9 l-54 0 -59 -155 c-32 -85 -61 -155 -64
-155 -3 0 -18 35 -34 78 -16 42 -42 112 -58 155 l-30 77 -59 0 -59 0 19 -47z"/>
<path d="M3040 1190 l0 -240 150 0 150 0 0 45 0 44 -97 3 -98 3 -3 193 -2 192
-50 0 -50 0 0 -240z"/>
<path d="M3400 1263 c1 -220 16 -263 105 -304 72 -33 185 -20 238 29 11 9 28
34 38 54 17 32 19 60 19 213 l0 175 -49 0 -50 0 -3 -171 -3 -171 -34 -30 c-28
-25 -40 -29 -68 -25 -78 13 -93 52 -93 247 l0 150 -50 0 -50 0 0 -167z"/>
<path d="M3907 1424 c-4 -4 -7 -112 -7 -241 l0 -233 50 0 50 0 0 165 c0 91 4
165 8 165 4 0 53 -74 107 -165 l100 -164 68 -1 67 0 0 240 0 240 -50 0 -50 0
-2 -167 -3 -166 -100 164 -100 164 -66 3 c-35 2 -68 0 -72 -4z"/>
<path d="M4410 1386 l0 -45 68 -3 67 -3 3 -192 2 -193 50 0 50 0 0 195 0 195
71 0 70 0 -3 43 -3 42 -187 3 -188 2 0 -44z"/>
<path d="M4850 1190 l0 -240 165 0 165 0 0 45 0 45 -115 0 -115 0 0 55 0 55
105 0 105 0 0 45 0 45 -105 0 -105 0 0 45 0 45 110 0 110 0 0 50 0 50 -160 0
-160 0 0 -240z"/>
<path d="M5277 1423 c-4 -3 -7 -111 -7 -240 l0 -233 170 0 170 0 0 45 0 44
-117 3 -118 3 0 50 0 50 103 3 102 3 0 44 0 44 -102 3 -103 3 -3 43 -3 42 110
0 111 0 0 50 0 50 -153 0 c-85 0 -157 -3 -160 -7z"/>
<path d="M5697 1423 c-4 -3 -7 -111 -7 -240 l0 -233 55 0 55 0 0 96 0 95 28
-3 c23 -3 34 -16 75 -95 l48 -93 59 0 c33 0 60 2 60 5 0 2 -25 45 -55 95 -30
50 -55 94 -55 98 0 4 15 14 33 22 45 21 71 78 62 135 -8 60 -49 100 -115 114
-56 12 -233 15 -243 4z m231 -99 c12 -8 22 -26 22 -39 0 -40 -25 -55 -91 -55
l-59 0 0 55 0 55 53 0 c31 0 61 -6 75 -16z"/>
<path d="M812 1375 c-16 -34 -15 -74 2 -104 l14 -24 12 23 c19 36 13 130 -9
130 -4 0 -13 -11 -19 -25z"/>
<path d="M590 1299 c0 -24 60 -89 83 -89 25 0 8 47 -30 80 -40 35 -53 38 -53
9z"/>
<path d="M720 1276 c0 -42 28 -96 51 -96 18 0 10 87 -12 114 -29 37 -39 33
-39 -18z"/>
<path d="M907 1302 c-35 -38 -46 -122 -17 -122 19 0 50 65 50 103 0 41 -9 46
-33 19z"/>
<path d="M1012 1292 c-29 -27 -49 -68 -38 -79 12 -12 56 17 76 49 37 62 15 79
-38 30z"/>
<path d="M550 1211 c0 -18 50 -68 79 -81 41 -17 53 -11 38 20 -22 43 -117 93
-117 61z"/>
<path d="M812 1195 c-15 -34 -15 -84 2 -113 12 -22 13 -22 27 -6 19 23 18 109
-2 129 -14 14 -17 13 -27 -10z"/>
<path d="M1054 1210 c-22 -9 -74 -65 -74 -81 0 -13 15 -11 54 5 31 13 76 59
76 77 0 11 -28 11 -56 -1z"/>
<path d="M447 1155 c8 -23 57 -45 97 -45 42 0 40 17 -3 43 -38 22 -103 23 -94
2z"/>
<path d="M700 1143 c0 -29 59 -93 85 -93 40 0 -19 101 -66 113 -15 4 -19 0
-19 -20z"/>
<path d="M899 1131 c-57 -56 -50 -106 9 -65 38 26 69 104 41 104 -6 0 -29 -17
-50 -39z"/>
<path d="M1113 1150 c-44 -26 -41 -40 7 -40 30 0 48 7 72 30 l33 29 -40 1
c-23 0 -54 -9 -72 -20z"/>
<path d="M580 1081 c0 -29 104 -82 130 -66 14 9 -15 49 -46 63 -30 14 -84 16
-84 3z"/>
<path d="M1005 1078 c-22 -12 -54 -48 -55 -62 0 -13 68 0 96 19 13 8 28 24 34
35 10 18 8 20 -22 20 -18 0 -42 -6 -53 -12z"/>
<path d="M420 1045 l-25 -14 39 -16 c39 -17 99 -14 111 5 7 12 -47 40 -77 40
-13 -1 -34 -7 -48 -15z"/>
<path d="M1132 1038 c-56 -27 25 -58 85 -33 36 16 37 17 19 31 -23 16 -71 17
-104 2z"/>
<path d="M817 986 c4 -36 2 -56 -5 -56 -5 0 -12 10 -15 23 -8 29 -34 64 -42
55 -4 -3 3 -28 14 -53 12 -26 21 -59 21 -73 l0 -25 -24 22 c-62 58 -30 -25 36
-96 20 -21 21 -30 15 -147 -12 -223 -50 -351 -127 -420 -92 -83 -306 -155
-620 -209 -14 -2 353 -4 815 -4 462 0 827 2 810 4 -402 50 -628 113 -683 190
-74 105 -129 435 -102 615 7 46 19 100 28 121 19 46 9 60 -13 18 -24 -48 -36
-38 -29 26 9 68 -10 67 -20 -2 -11 -73 -26 -56 -39 44 -1 8 -7 16 -14 18 -8 3
-10 -11 -6 -51z"/>
<path d="M602 980 c-29 -12 -20 -27 25 -46 35 -15 103 -10 103 7 0 28 -89 55
-128 39z"/>
<path d="M1010 983 c-8 -3 -23 -13 -33 -21 -22 -20 -7 -32 41 -32 35 0 92 24
92 39 0 19 -64 27 -100 14z"/>
<path d="M459 911 c-30 -24 -19 -36 30 -36 45 0 101 32 80 46 -25 15 -86 10
-110 -10z"/>
<path d="M1102 921 c-10 -6 -8 -12 10 -23 35 -23 65 -30 98 -23 38 8 38 20 0
40 -31 16 -87 20 -108 6z"/>
<path d="M4620 631 c-50 -26 -83 -93 -76 -150 11 -83 65 -131 149 -131 92 0
147 55 147 147 0 116 -119 189 -220 134z m137 -31 c38 -23 59 -80 49 -133 -18
-98 -159 -122 -209 -37 -19 32 -22 101 -6 131 15 29 69 59 104 59 17 0 44 -9
62 -20z"/>
<path d="M1960 495 c0 -138 1 -145 20 -145 18 0 20 8 22 122 l3 123 83 -123
c59 -86 89 -122 102 -122 19 0 20 8 20 145 0 121 -2 145 -15 145 -12 0 -15
-23 -17 -122 l-3 -121 -80 121 c-70 106 -83 122 -107 122 l-28 0 0 -145z"/>
<path d="M2640 495 l0 -145 95 0 c78 0 95 3 95 15 0 12 -16 15 -80 15 l-80 0
0 55 0 55 70 0 c56 0 70 3 70 15 0 12 -14 15 -70 15 l-70 0 0 45 0 45 75 0
c60 0 75 3 75 15 0 12 -17 15 -90 15 l-90 0 0 -145z"/>
<path d="M3200 625 c0 -11 12 -15 50 -15 l50 0 0 -130 c0 -109 2 -130 15 -130
13 0 15 21 15 130 l0 130 45 0 c33 0 45 4 45 15 0 12 -19 15 -110 15 -91 0
-110 -3 -110 -15z"/>
<path d="M3783 628 c3 -7 22 -73 43 -145 30 -105 41 -133 55 -133 18 0 19 1
64 154 15 48 30 84 34 80 7 -9 20 -49 56 -176 12 -43 21 -58 34 -58 14 0 26
28 59 142 23 78 40 143 37 146 -16 16 -34 -20 -60 -117 -16 -61 -32 -111 -35
-111 -3 0 -21 52 -39 115 -29 100 -36 115 -55 115 -22 0 -20 5 -71 -173 -9
-33 -20 -55 -25 -50 -4 4 -20 56 -36 116 -23 87 -32 107 -47 107 -11 0 -17 -5
-14 -12z"/>
<path d="M5250 495 c0 -122 2 -145 15 -145 12 0 15 14 15 65 0 64 0 65 28 65
24 0 33 -9 65 -65 27 -47 43 -65 58 -65 20 0 20 0 -2 38 -12 20 -31 49 -41 64
-21 31 -22 38 -5 38 24 0 57 45 57 77 0 50 -38 73 -121 73 l-69 0 0 -145z
m148 98 c31 -43 -4 -83 -75 -83 l-43 0 0 48 c0 27 3 52 8 56 12 13 96 -3 110
-21z"/>
<path d="M5850 495 c0 -122 2 -145 15 -145 12 0 15 15 15 75 0 41 2 75 4 75 2
0 37 -34 78 -76 46 -47 81 -75 91 -73 12 3 -3 25 -56 83 l-72 79 70 64 c60 54
66 63 45 63 -17 0 -46 -21 -92 -67 l-68 -67 0 67 c0 53 -3 67 -15 67 -13 0
-15 -23 -15 -145z"/>
</g>
</svg>
